{"title":"Mogari no mori AKA The Mourning Forest (2007)","uid":7977435,"size":1820863310,"categoryP":"video","categoryS":"movies","magnet":"?xt=urn:btih:d4b2396e492e3cc3a0637fb21d5163ba8f7063fa&amp;dn=Mogari+no+mori+AKA+The+Mourning+Forest+%282007%29&amp;tr=udp%3A%2F%2Ftracker.openbittorrent.com%3A80&amp;tr=udp%3A%2F%2Fopen.demonii.com%3A1337&amp;tr=udp%3A%2F%2Ftracker.coppersurfer.tk%3A6969&amp;tr=udp%3A%2F%2Fexodus.desync.com%3A6969","seeders":12,"leechers":0,"uploader":"mfccorrea","files":1,"time":1356998717,"description":"A caregiver at a small retirement home takes one of her patients for drive to the country, but the two wind up stranded in a forest where they embark on an exhausting and enlightening two-day journey. \n\nRip Specs\n\n   General\n      Complete name : Mogari no Mori.mkv\n      Format : Matroska\n      File size : 1.70 GiB\n      Duration : 1h 37mn\n   Video #1\n      ID : 1\n      Format : AVC\n      Format/Info : Advanced Video Codec\n      Format profile : &lt;a class=&quot;__cf_email__&quot; href=&quot;/cdn-cgi/l/email-protection&quot; data-cfemail=&quot;531b3a343b131f607d63&quot;&gt;[email&amp;#160;protected]&lt;/a&gt;&lt;script cf-hash='f9e31' type=&quot;text/javascript&quot;&gt;\n/* &lt;![CDATA[ */!function(){try{var t=&quot;currentScript&quot;in document?document.currentScript:function(){for(var t=document.getElementsByTagName(&quot;script&quot;),e=t.length;e--;)if(t[e].getAttribute(&quot;cf-hash&quot;))return t[e]}();if(t&amp;&amp;t.previousSibling){var e,r,n,i,c=t.previousSibling,a=c.getAttribute(&quot;data-cfemail&quot;);if(a){for(e=&quot;&quot;,r=parseInt(a.substr(0,2),16),n=2;a.length-n;n+=2)i=parseInt(a.substr(n,2),16)^r,e+=String.fromCharCode(i);e=document.createTextNode(e),c.parentNode.replaceChild(e,c)}}}catch(u){}}();/* ]]&gt; */&lt;/script&gt;\n      Format settings, CABAC : Yes\n      Format settings, ReFrames : 4 frames\n      Muxing mode : Container profile=&lt;a class=&quot;__cf_email__&quot; href=&quot;/cdn-cgi/l/email-protection&quot; data-cfemail=&quot;9cc9f2f7f2f3ebf2dcafb2ac&quot;&gt;[email&amp;#160;protected]&lt;/a&gt;&lt;script cf-hash='f9e31' type=&quot;text/javascript&quot;&gt;\n/* &lt;![CDATA[ */!function(){try{var t=&quot;currentScript&quot;in document?document.currentScript:function(){for(var t=document.getElementsByTagName(&quot;script&quot;),e=t.length;e--;)if(t[e].getAttribute(&quot;cf-hash&quot;))return t[e]}();if(t&amp;&amp;t.previousSibling){var e,r,n,i,c=t.previousSibling,a=c.getAttribute(&quot;data-cfemail&quot;);if(a){for(e=&quot;&quot;,r=parseInt(a.substr(0,2),16),n=2;a.length-n;n+=2)i=parseInt(a.substr(n,2),16)^r,e+=String.fromCharCode(i);e=document.createTextNode(e),c.parentNode.replaceChild(e,c)}}}catch(u){}}();/* ]]&gt; */&lt;/script&gt;\n      Codec ID : V_MPEG4/ISO/AVC\n      Duration : 1h 37mn\n      Bit rate : 2 002 Kbps\n      Nominal bit rate : 2 050 Kbps\n      Width : 720 pixels\n      Height : 464 pixels\n      Display aspect ratio : 16:9\n      Frame rate : 23.976 fps\n      Resolution : 24 bits\n      Colorimetry : 4:2:0\n      Scan type : Progressive\n      Bits/(Pixel*Frame) : 0.250\n      Stream size : 1.36 GiB (80%)\n      Writing library : x264 core 120\n   Audio #2\n      ID : 2\n      Format : AC-3\n      Format/Info : Audio Coding 3\n      Codec ID : A_AC3\n      Duration : 1h 37mn\n      Bit rate mode : Constant\n      Bit rate : 448 Kbps\n      Channel(s) : 6 channels\n      Channel positions : Front: L C R, Surround: L R, LFE\n      Sampling rate : 48.0 KHz\n      Stream size : 311 MiB (18%)\n      Language : Japanese\n   Text #3\n      ID : 3\n      Format : VobSub\n      Codec ID : S_VOBSUB\n      Codec ID/Info : The same subtitle format used on DVDs\n      Language : English\n   Text #4\n      ID : 4\n      Format : UTF-8\n      Codec ID : S_TEXT/UTF8\n      Codec ID/Info : UTF-8 Plain Text\n      Language : Portuguese\n\n &lt;a href=&quot;\nhttp://www.imdb.com/title/tt1016205/&quot; rel=&quot;nofollow&quot; target=&quot;_NEW&quot;&gt;\nhttp://www.imdb.com/title/tt1016205/&lt;/a&gt;\n\nMy rip of the Japanese DVD\n\n\n","torrent":{"xt":"urn:btih:d4b2396e492e3cc3a0637fb21d5163ba8f7063fa","amp;dn":"Mogari+no+mori+AKA+The+Mourning+Forest+%282007%29","amp;tr":["udp%3A%2F%2Ftracker.openbittorrent.com%3A80","udp%3A%2F%2Fopen.demonii.com%3A1337","udp%3A%2F%2Ftracker.coppersurfer.tk%3A6969","udp%3A%2F%2Fexodus.desync.com%3A6969"],"infoHash":"d4b2396e492e3cc3a0637fb21d5163ba8f7063fa","infoHashBuffer":{"type":"Buffer","data":[212,178,57,110,73,46,60,195,160,99,127,178,29,81,99,186,143,112,99,250]},"announce":[],"urlList":[]}}